<svg id="visual" viewBox="0 0 900 600" width="900" height="600" xmlns="http://www.w3.org/2000/svg" xmlns:xlink="http://www.w3.org/1999/xlink" version="1.1"><rect x="0" y="0" width="900" height="600" fill="transparent"></rect><path d="M0 202L25 206.2C50 210.3 100 218.7 150 215.3C200 212 250 197 300 182.5C350 168 400 154 450 144.5C500 135 550 130 600 137C650 144 700 163 750 177.8C800 192.7 850 203.3 875 208.7L900 214L900 0L875 0C850 0 800 0 750 0C700 0 650 0 600 0C550 0 500 0 450 0C400 0 350 0 300 0C250 0 200 0 150 0C100 0 50 0 25 0L0 0Z" fill="#ffeb89"></path><path d="M0 128L25 123C50 118 100 108 150 106.7C200 105.3 250 112.7 300 117.2C350 121.7 400 123.3 450 133.8C500 144.3 550 163.7 600 164.3C650 165 700 147 750 142.3C800 137.7 850 146.3 875 150.7L900 155L900 0L875 0C850 0 800 0 750 0C700 0 650 0 600 0C550 0 500 0 450 0C400 0 350 0 300 0C250 0 200 0 150 0C100 0 50 0 25 0L0 0Z" fill="#d3e96f"></path><path d="M0 76L25 82.8C50 89.7 100 103.3 150 100.8C200 98.3 250 79.7 300 78.3C350 77 400 93 450 92.8C500 92.7 550 76.3 600 79.8C650 83.3 700 106.7 750 111.8C800 117 850 104 875 97.5L900 91L900 0L875 0C850 0 800 0 750 0C700 0 650 0 600 0C550 0 500 0 450 0C400 0 350 0 300 0C250 0 200 0 150 0C100 0 50 0 25 0L0 0Z" fill="#95e865"></path><path d="M0 45L25 49.8C50 54.7 100 64.3 150 66.5C200 68.7 250 63.3 300 65.3C350 67.3 400 76.7 450 79.8C500 83 550 80 600 78.5C650 77 700 77 750 74.8C800 72.7 850 68.3 875 66.2L900 64L900 0L875 0C850 0 800 0 750 0C700 0 650 0 600 0C550 0 500 0 450 0C400 0 350 0 300 0C250 0 200 0 150 0C100 0 50 0 25 0L0 0Z" fill="#00e670"></path></svg>